<svg width="52" height="55" viewBox="0 0 52 55" fill="none" xmlns="http://www.w3.org/2000/svg">
<path d="M49.9505 16.3704C49.6023 17.7424 48.9265 20.3994 48.2559 23.0257C48.0697 23.7256 47.8301 24.4102 47.5391 25.0735C46.2439 28.1451 46.0341 31.3346 45.9266 34.5957C45.7781 39.0905 45.2252 43.5445 43.5869 47.7834C43.2498 48.6625 42.8171 49.502 42.2968 50.2867C40.0494 53.7014 35.6416 53.8396 33.3429 50.4506C32.4181 48.9447 31.7098 47.316 31.2388 45.6127C30.5119 43.3192 30.0409 40.9438 29.401 38.6196C29.1794 37.8609 28.8592 37.1345 28.4488 36.4591C27.1894 34.3601 24.5887 34.1298 23.2218 36.1571C22.2996 37.661 21.5687 39.2742 21.046 40.9591C20.0579 43.7594 19.2388 46.6212 18.2866 49.4318C18.0368 50.0632 17.6801 50.6469 17.232 51.1571C15.3225 53.5427 12.1894 53.6246 10.1723 51.3311C8.5336 49.3844 7.46991 47.0195 7.10065 44.5018C6.42754 40.7994 5.95245 37.0637 5.67743 33.3107C5.52429 30.6059 5.0236 27.932 4.18768 25.3551C3.16379 22.3244 2.13991 19.2475 1.72523 16.1093C1.02899 10.6981 3.53239 6.52575 7.93 3.52576C10.4181 1.82611 13.2286 2.036 15.9982 2.81927C17.4163 3.21859 18.8241 3.63843 20.2064 4.14013C23.6683 5.43869 27.4795 5.46223 30.9572 4.20662C32.6979 3.61277 34.4795 3.10082 36.2662 2.67079C39.6706 1.82096 42.6604 2.67082 45.2764 5.00529C48.3532 7.75955 49.9658 11.1281 49.9505 16.3704Z" stroke="#4D2C19" stroke-width="2.55972" stroke-miterlimit="10" stroke-linecap="round"/>
</svg>
